<svg version="1.1" id="Camada_1" xmlns="http://www.w3.org/2000/svg" xmlns:xlink="http://www.w3.org/1999/xlink" x="0px" y="0px" viewBox="31.310998916625977 31.707000732421875 140.31900596618652 32.031002044677734" style="enable-background:new 0 0 1869 876;" xml:space="preserve" width="202.943" height="32">
	<style type="text/css">
	.st0{fill:#FFFFFF;}
	.st1{fill:#1D1D1B;}
	.st2{fill:#00A1FC;}
</style>
	<g>
		<path class="st2" d="M159.731 58.942c-3.803 0 -6.335 -2.852 -6.335 -6.968c0 -4.118 2.531 -6.968 6.335 -6.968c3.756 0 6.287 2.852 6.287 6.968C166.021 56.091 163.488 58.942 159.731 58.942M159.731 40.212c-6.968 0 -11.944 4.975 -11.944 11.763s4.975 11.763 11.944 11.763c6.921 0 11.899 -4.975 11.899 -11.763S166.655 40.212 159.731 40.212" />
		<path class="st2" d="M134.265 33.7v21.715c0 5.066 3.259 7.961 8.234 7.961h3.71v-5.021h-3.076c-2.082 0 -3.302 -1.178 -3.302 -3.483v-9.636h6.379v-4.659h-6.379v-6.876H134.265z" />
		<path class="st2" d="M103.804 58.942c-3.803 0 -6.335 -2.852 -6.335 -6.968c0 -4.118 2.531 -6.968 6.335 -6.968c3.756 0 6.287 2.852 6.287 6.968C110.096 56.091 107.561 58.942 103.804 58.942M103.804 40.212c-6.968 0 -11.944 4.975 -11.944 11.763S96.841 63.736 103.804 63.736c6.921 0 11.899 -4.975 11.899 -11.763S110.728 40.212 103.804 40.212" />
		<path class="st2" d="M80.917 46.32h-6.422v-9.589h6.422c3.529 0 4.975 2.263 4.975 4.794S84.446 46.32 80.917 46.32M81.186 31.707H68.474v31.665h6.017V51.341h6.695c6.605 0 10.54 -4.072 10.54 -9.817C91.729 35.78 87.792 31.707 81.186 31.707" />
		<path class="st2" d="M123.727 63.377V49.078c0 -2.307 1.221 -3.483 3.302 -3.483h4.429v-5.021h-5.061c-4.975 0 -8.234 2.895 -8.234 7.962v14.839H123.727z" />
		<path class="st2" d="M59.021 48.716c-2.788 -3.415 -11.976 -1.628 -19.137 0.657c-0.089 0.032 -0.184 -0.029 -0.181 -0.115c0.011 -0.362 0.018 -0.724 0.018 -1.095c0 -2.004 -0.163 -3.73 -0.457 -5.428c-0.011 -0.058 0.029 -0.115 0.095 -0.133c5.927 -2.16 17.864 -2.831 19.908 6.017l0 0.002C59.298 48.749 59.104 48.825 59.021 48.716M53.021 58.641c-0.196 0.144 -0.453 -0.094 -0.285 -0.265c2.886 -2.949 5.256 -7.625 -15.647 1.887c-0.127 0.057 -0.256 -0.077 -0.172 -0.181c1.152 -1.645 2.179 -4.299 2.643 -8.058c0.002 -0.046 0.037 -0.086 0.08 -0.104C52.744 46.662 67.535 46.855 53.021 58.641M35.536 35.114c-0.12 -0.058 -0.068 -0.227 0.068 -0.227c3.624 0.011 14.543 -0.262 20.165 6.907c0.077 0.123 -0.097 0.249 -0.21 0.152c-1.697 -1.476 -6.293 -3.98 -16.885 -1.789c-0.075 0.018 -0.152 -0.025 -0.17 -0.089C37.66 37.373 36.592 35.917 35.536 35.114M58.817 31.707H35.015c-2.045 0 -3.704 1.683 -3.704 3.757v24.151c0 2.074 1.658 3.757 3.704 3.757h23.8c2.045 0 3.704 -1.683 3.704 -3.757V35.469C62.518 33.393 60.862 31.707 58.817 31.707" />
	</g>
</svg>