<svg xmlns="http://www.w3.org/2000/svg" viewBox="0 0 25.506 25.881" width="25.506" height="25.881"><defs><style>.d{fill:#009fe3;}</style></defs><g id="a"/><g id="b"><g id="c"><path class="d" d="M22.647 13.901c-2.278 -2.791 -9.789 -1.33 -15.64 0.538 -0.074 0.026 -0.15 -0.025 -0.148 -0.096 0.009 -0.296 0.014 -0.594 0.014 -0.895 0 -1.638 -0.134 -3.048 -0.374 -4.436 -0.009 -0.05 0.024 -0.096 0.077 -0.109 4.844 -1.766 14.601 -2.313 16.27 4.918v0.002c0.028 0.106 -0.13 0.169 -0.199 0.079m-4.902 8.112c-0.16 0.119 -0.369 -0.076 -0.233 -0.217 2.358 -2.409 4.295 -6.232 -12.788 1.543 -0.105 0.047 -0.209 -0.062 -0.14 -0.147 0.942 -1.345 1.781 -3.513 2.161 -6.585 0.004 -0.037 0.028 -0.07 0.067 -0.085 10.705 -4.3 22.795 -4.141 10.933 5.491M3.453 2.784c-0.098 -0.05 -0.057 -0.185 0.055 -0.184 2.962 0.009 11.884 -0.213 16.482 5.646 0.063 0.1 -0.081 0.203 -0.172 0.123 -1.388 -1.208 -5.144 -3.253 -13.801 -1.463 -0.06 0.015 -0.123 -0.019 -0.138 -0.074 -0.69 -2.204 -1.566 -3.394 -2.426 -4.05M22.479 0H3.027C1.355 0 0 1.375 0 3.072v19.738c0 1.697 1.355 3.072 3.027 3.072H22.479c1.672 0 3.027 -1.375 3.027 -3.072V3.072c0 -1.696 -1.355 -3.072 -3.027 -3.072"/></g></g></svg>